<svg width="34" height="32" viewBox="0 0 34 32" fill="none" xmlns="http://www.w3.org/2000/svg">
<path fill-rule="evenodd" clip-rule="evenodd" d="M32.3194 26.7651H31.1143V24.555C31.1143 24.153 30.7809 23.8271 30.3696 23.8271H28.8261V10.2621H32.3329C32.6411 10.2577 32.9073 10.0504 32.9805 9.75776C33.0538 9.46516 32.9156 9.16113 32.6444 9.01812L17.317 1.07764C17.1181 0.97412 16.8795 0.97412 16.6806 1.07764L1.3668 9.03135C1.10919 9.17997 0.981917 9.47622 1.05373 9.76005C1.12555 10.0439 1.37944 10.248 1.67822 10.2621H5.1851V23.8271H3.62799C3.21671 23.8271 2.88329 24.153 2.88329 24.555V26.7651H1.67822C1.49141 26.7648 1.31275 26.8399 1.18456 26.9727C1.05636 27.1055 0.990012 27.2842 1.00122 27.4665V30.3383C1.00122 30.7037 1.30433 31 1.67822 31H32.3194C32.6933 31 32.9964 30.7037 32.9964 30.3383V27.4665C33.0076 27.2842 32.9413 27.1055 32.8131 26.9727C32.6849 26.8399 32.5062 26.7648 32.3194 26.7651ZM27.4585 23.8403H26.3888V10.2621H27.4585V23.8403ZM11.6437 23.8271V10.2621H8.9357V23.8271H11.6437ZM12.9977 10.2621H14.0674V23.8271H12.9977V10.2621ZM18.6033 10.2621H15.4214V23.8271H18.6033V10.2621ZM19.9573 10.2621H21.027V23.8271H19.9573V10.2621ZM25.089 10.2621H22.381V23.8271H25.089V10.2621ZM16.965 2.40105L29.6114 8.93871H4.39978L16.965 2.40105ZM7.60877 10.2621H6.53911V23.8271H7.60877V10.2621ZM4.3727 25.2829H29.6249V26.6989H4.3727V25.2829ZM2.35523 29.6369H31.6424V28.0885H30.6675C30.5692 28.1081 30.4679 28.1081 30.3696 28.0885H3.62799C3.52971 28.1081 3.42839 28.1081 3.33011 28.0885H2.35523V29.6369Z" fill="#C3C6D0"/>
<path d="M31.1143 26.7651H30.9143V26.9651H31.1143V26.7651ZM32.3194 26.7651V26.9651L32.3197 26.9651L32.3194 26.7651ZM28.8261 23.8271H28.6261V24.0271H28.8261V23.8271ZM28.8261 10.2621V10.0621H28.6261V10.2621H28.8261ZM32.3329 10.2621V10.4621L32.3358 10.4621L32.3329 10.2621ZM32.6444 9.01812L32.7376 8.8412L32.7364 8.84053L32.6444 9.01812ZM17.317 1.07764L17.2247 1.25505L17.225 1.25522L17.317 1.07764ZM16.6806 1.07764L16.7728 1.25513L16.773 1.25505L16.6806 1.07764ZM1.3668 9.03135L1.27453 8.85369L1.26686 8.85811L1.3668 9.03135ZM1.05373 9.76005L1.24762 9.71099L1.05373 9.76005ZM1.67822 10.2621L1.66877 10.4621H1.67822V10.2621ZM5.1851 10.2621H5.3851V10.0621H5.1851V10.2621ZM5.1851 23.8271V24.0271H5.3851V23.8271H5.1851ZM2.88329 26.7651V26.9651H3.08329V26.7651H2.88329ZM1.67822 26.7651L1.67787 26.9651H1.67822V26.7651ZM1.18456 26.9727L1.32846 27.1116H1.32846L1.18456 26.9727ZM1.00122 27.4665H1.2016L1.20084 27.4542L1.00122 27.4665ZM32.9964 27.4665L32.7964 27.4542V27.4665H32.9964ZM26.3888 23.8403H26.1888V24.0403H26.3888V23.8403ZM27.4585 23.8403V24.0403H27.6585V23.8403H27.4585ZM26.3888 10.2621V10.0621H26.1888V10.2621H26.3888ZM27.4585 10.2621H27.6585V10.0621H27.4585V10.2621ZM11.6437 10.2621H11.8437V10.0621H11.6437V10.2621ZM11.6437 23.8271V24.0271H11.8437V23.8271H11.6437ZM8.9357 10.2621V10.0621H8.7357V10.2621H8.9357ZM8.9357 23.8271H8.7357V24.0271H8.9357V23.8271ZM14.0674 10.2621H14.2674V10.0621H14.0674V10.2621ZM12.9977 10.2621V10.0621H12.7977V10.2621H12.9977ZM14.0674 23.8271V24.0271H14.2674V23.8271H14.0674ZM12.9977 23.8271H12.7977V24.0271H12.9977V23.8271ZM15.4214 10.2621V10.0621H15.2214V10.2621H15.4214ZM18.6033 10.2621H18.8033V10.0621H18.6033V10.2621ZM15.4214 23.8271H15.2214V24.0271H15.4214V23.8271ZM18.6033 23.8271V24.0271H18.8033V23.8271H18.6033ZM21.027 10.2621H21.227V10.0621H21.027V10.2621ZM19.9573 10.2621V10.0621H19.7573V10.2621H19.9573ZM21.027 23.8271V24.0271H21.227V23.8271H21.027ZM19.9573 23.8271H19.7573V24.0271H19.9573V23.8271ZM22.381 10.2621V10.0621H22.181V10.2621H22.381ZM25.089 10.2621H25.289V10.0621H25.089V10.2621ZM22.381 23.8271H22.181V24.0271H22.381V23.8271ZM25.089 23.8271V24.0271H25.289V23.8271H25.089ZM29.6114 8.93871V9.13871L29.7032 8.76105L29.6114 8.93871ZM16.965 2.40105L17.0568 2.22339L16.9647 2.17576L16.8726 2.22363L16.965 2.40105ZM4.39978 8.93871L4.30747 8.76129L4.39978 9.13871V8.93871ZM6.53911 10.2621V10.0621H6.33911V10.2621H6.53911ZM7.60877 10.2621H7.80877V10.0621H7.60877V10.2621ZM6.53911 23.8271H6.33911V24.0271H6.53911V23.8271ZM7.60877 23.8271V24.0271H7.80877V23.8271H7.60877ZM29.6249 25.2829H29.8249V25.0829H29.6249V25.2829ZM4.3727 25.2829V25.0829H4.1727V25.2829H4.3727ZM29.6249 26.6989V26.8989H29.8249V26.6989H29.6249ZM4.3727 26.6989H4.1727V26.8989H4.3727V26.6989ZM31.6424 29.6369V29.8369H31.8424V29.6369H31.6424ZM2.35523 29.6369H2.15523V29.8369H2.35523V29.6369ZM31.6424 28.0885H31.8424V27.8885H31.6424V28.0885ZM30.6675 28.0885V27.8885H30.6478L30.6284 27.8924L30.6675 28.0885ZM30.3696 28.0885L30.4088 27.8924L30.3894 27.8885H30.3696V28.0885ZM3.62799 28.0885V27.8885H3.60824L3.58886 27.8924L3.62799 28.0885ZM3.33011 28.0885L3.36924 27.8924L3.34987 27.8885H3.33011V28.0885ZM2.35523 28.0885V27.8885H2.15523V28.0885H2.35523ZM31.1143 26.9651H32.3194V26.5651H31.1143V26.9651ZM30.9143 24.555V26.7651H31.3143V24.555H30.9143ZM30.3696 24.0271C30.6748 24.0271 30.9143 24.2677 30.9143 24.555H31.3143C31.3143 24.0382 30.887 23.6271 30.3696 23.6271V24.0271ZM28.8261 24.0271H30.3696V23.6271H28.8261V24.0271ZM28.6261 10.2621V23.8271H29.0261V10.2621H28.6261ZM32.3329 10.0621H28.8261V10.4621H32.3329V10.0621ZM32.7865 9.70919C32.736 9.91114 32.5503 10.059 32.33 10.0621L32.3358 10.4621C32.7318 10.4564 33.0786 10.1896 33.1746 9.80633L32.7865 9.70919ZM32.5511 9.19503C32.7428 9.29609 32.8369 9.5081 32.7865 9.70919L33.1746 9.80633C33.2707 9.42222 33.0885 9.02617 32.7376 8.8412L32.5511 9.19503ZM17.225 1.25522L32.5524 9.1957L32.7364 8.84053L17.409 0.900056L17.225 1.25522ZM16.773 1.25505C16.914 1.18165 17.0836 1.18165 17.2247 1.25505L17.4093 0.900229C17.1526 0.76659 16.8451 0.76659 16.5883 0.900229L16.773 1.25505ZM1.45899 9.20884L16.7728 1.25513L16.5884 0.900152L1.27462 8.85386L1.45899 9.20884ZM1.24762 9.71099C1.19825 9.51585 1.28494 9.30948 1.46675 9.20459L1.26686 8.85811C0.933447 9.05047 0.765587 9.43659 0.859845 9.80911L1.24762 9.71099ZM1.68767 10.0623C1.47419 10.0523 1.2972 9.90691 1.24762 9.71099L0.859845 9.80911C0.953905 10.1808 1.28468 10.4437 1.66878 10.4619L1.68767 10.0623ZM5.1851 10.0621H1.67822V10.4621H5.1851V10.0621ZM5.3851 23.8271V10.2621H4.9851V23.8271H5.3851ZM3.62799 24.0271H5.1851V23.6271H3.62799V24.0271ZM3.08329 24.555C3.08329 24.2677 3.32283 24.0271 3.62799 24.0271V23.6271C3.11058 23.6271 2.68329 24.0382 2.68329 24.555H3.08329ZM3.08329 26.7651V24.555H2.68329V26.7651H3.08329ZM1.67822 26.9651H2.88329V26.5651H1.67822V26.9651ZM1.32846 27.1116C1.41837 27.0184 1.54471 26.9648 1.67787 26.9651L1.67858 26.5651C1.43811 26.5647 1.20714 26.6613 1.04065 26.8338L1.32846 27.1116ZM1.20084 27.4542C1.19312 27.3286 1.23873 27.2046 1.32846 27.1116L1.04065 26.8338C0.873992 27.0065 0.786904 27.2398 0.801598 27.4788L1.20084 27.4542ZM1.20122 30.3383V27.4665H0.801221V30.3383H1.20122ZM1.67822 30.8C1.41045 30.8 1.20122 30.589 1.20122 30.3383H0.801221C0.801221 30.8185 1.1982 31.2 1.67822 31.2V30.8ZM32.3194 30.8H1.67822V31.2H32.3194V30.8ZM32.7964 30.3383C32.7964 30.589 32.5872 30.8 32.3194 30.8V31.2C32.7994 31.2 33.1964 30.8185 33.1964 30.3383H32.7964ZM32.7964 27.4665V30.3383H33.1964V27.4665H32.7964ZM32.6692 27.1116C32.7589 27.2046 32.8045 27.3286 32.7968 27.4542L33.196 27.4788C33.2107 27.2398 33.1236 27.0065 32.957 26.8338L32.6692 27.1116ZM32.3197 26.9651C32.4529 26.9648 32.5792 27.0184 32.6692 27.1116L32.957 26.8338C32.7905 26.6613 32.5595 26.5647 32.319 26.5651L32.3197 26.9651ZM26.3888 24.0403H27.4585V23.6403H26.3888V24.0403ZM26.1888 10.2621V23.8403H26.5888V10.2621H26.1888ZM27.4585 10.0621H26.3888V10.4621H27.4585V10.0621ZM27.6585 23.8403V10.2621H27.2585V23.8403H27.6585ZM11.4437 10.2621V23.8271H11.8437V10.2621H11.4437ZM8.9357 10.4621H11.6437V10.0621H8.9357V10.4621ZM9.1357 23.8271V10.2621H8.7357V23.8271H9.1357ZM11.6437 23.6271H8.9357V24.0271H11.6437V23.6271ZM14.0674 10.0621H12.9977V10.4621H14.0674V10.0621ZM14.2674 23.8271V10.2621H13.8674V23.8271H14.2674ZM12.9977 24.0271H14.0674V23.6271H12.9977V24.0271ZM12.7977 10.2621V23.8271H13.1977V10.2621H12.7977ZM15.4214 10.4621H18.6033V10.0621H15.4214V10.4621ZM15.6214 23.8271V10.2621H15.2214V23.8271H15.6214ZM18.6033 23.6271H15.4214V24.0271H18.6033V23.6271ZM18.4033 10.2621V23.8271H18.8033V10.2621H18.4033ZM21.027 10.0621H19.9573V10.4621H21.027V10.0621ZM21.227 23.8271V10.2621H20.827V23.8271H21.227ZM19.9573 24.0271H21.027V23.6271H19.9573V24.0271ZM19.7573 10.2621V23.8271H20.1573V10.2621H19.7573ZM22.381 10.4621H25.089V10.0621H22.381V10.4621ZM22.581 23.8271V10.2621H22.181V23.8271H22.581ZM25.089 23.6271H22.381V24.0271H25.089V23.6271ZM24.889 10.2621V23.8271H25.289V10.2621H24.889ZM29.7032 8.76105L17.0568 2.22339L16.8731 2.57872L29.5195 9.11637L29.7032 8.76105ZM4.39978 9.13871H29.6114V8.73871H4.39978V9.13871ZM16.8726 2.22363L4.30747 8.76129L4.49209 9.11613L17.0573 2.57847L16.8726 2.22363ZM6.53911 10.4621H7.60877V10.0621H6.53911V10.4621ZM6.73911 23.8271V10.2621H6.33911V23.8271H6.73911ZM7.60877 23.6271H6.53911V24.0271H7.60877V23.6271ZM7.40877 10.2621V23.8271H7.80877V10.2621H7.40877ZM29.6249 25.0829H4.3727V25.4829H29.6249V25.0829ZM29.8249 26.6989V25.2829H29.4249V26.6989H29.8249ZM4.3727 26.8989H29.6249V26.4989H4.3727V26.8989ZM4.1727 25.2829V26.6989H4.5727V25.2829H4.1727ZM31.6424 29.4369H2.35523V29.8369H31.6424V29.4369ZM31.4424 28.0885V29.6369H31.8424V28.0885H31.4424ZM30.6675 28.2885H31.6424V27.8885H30.6675V28.2885ZM30.3305 28.2846C30.4546 28.3094 30.5825 28.3094 30.7066 28.2846L30.6284 27.8924C30.5559 27.9068 30.4812 27.9068 30.4088 27.8924L30.3305 28.2846ZM3.62799 28.2885H30.3696V27.8885H3.62799V28.2885ZM3.29098 28.2846C3.4151 28.3094 3.54301 28.3094 3.66712 28.2846L3.58886 27.8924C3.51642 27.9068 3.44169 27.9068 3.36924 27.8924L3.29098 28.2846ZM2.35523 28.2885H3.33011V27.8885H2.35523V28.2885ZM2.55523 29.6369V28.0885H2.15523V29.6369H2.55523Z" fill="#C3C6D0"/>
<path fill-rule="evenodd" clip-rule="evenodd" d="M19.0096 6.02719C19.0096 7.10893 18.1124 7.98584 17.0056 7.98584C16.4742 7.98584 15.9645 7.77949 15.5886 7.41217C15.2128 7.04485 15.0017 6.54666 15.0017 6.02719C15.0017 4.94546 15.8989 4.06854 17.0056 4.06854C18.1124 4.06854 19.0096 4.94546 19.0096 6.02719ZM17.6556 5.97426C17.6556 5.62342 17.3646 5.33902 17.0056 5.33902V5.39196C16.6668 5.3908 16.3839 5.64425 16.3557 5.97426C16.3557 6.32509 16.6467 6.60949 17.0056 6.60949C17.3646 6.60949 17.6556 6.32509 17.6556 5.97426Z" fill="#C3C6D0"/>
<path d="M15.5886 7.41217L15.7284 7.26914L15.5886 7.41217ZM17.0056 5.33902V5.13902H16.8056V5.33902H17.0056ZM17.0056 5.39196L17.005 5.59195L17.2056 5.59264V5.39196H17.0056ZM16.3557 5.97426L16.1564 5.95721L16.1557 5.96572V5.97426H16.3557ZM17.0056 8.18584C18.2185 8.18584 19.2096 7.22367 19.2096 6.02719H18.8096C18.8096 6.99418 18.0063 7.78584 17.0056 7.78584V8.18584ZM15.4489 7.5552C15.8625 7.9595 16.4226 8.18584 17.0056 8.18584V7.78584C16.5258 7.78584 16.0664 7.59947 15.7284 7.26914L15.4489 7.5552ZM14.8017 6.02719C14.8017 6.6012 15.035 7.15074 15.4489 7.5552L15.7284 7.26914C15.3906 6.93896 15.2017 6.49212 15.2017 6.02719H14.8017ZM17.0056 3.86854C15.7928 3.86854 14.8017 4.83072 14.8017 6.02719H15.2017C15.2017 5.0602 16.005 4.26854 17.0056 4.26854V3.86854ZM19.2096 6.02719C19.2096 4.83072 18.2185 3.86854 17.0056 3.86854V4.26854C18.0063 4.26854 18.8096 5.0602 18.8096 6.02719H19.2096ZM17.0056 5.53902C17.2585 5.53902 17.4556 5.73817 17.4556 5.97426H17.8556C17.8556 5.50868 17.4707 5.13902 17.0056 5.13902V5.53902ZM17.2056 5.39196V5.33902H16.8056V5.39196H17.2056ZM16.555 5.9913C16.574 5.76878 16.7664 5.59114 17.005 5.59195L17.0063 5.19196C16.5672 5.19046 16.1939 5.51972 16.1564 5.95721L16.555 5.9913ZM17.0056 6.40949C16.7528 6.40949 16.5557 6.21035 16.5557 5.97426H16.1557C16.1557 6.43983 16.5406 6.80949 17.0056 6.80949V6.40949ZM17.4556 5.97426C17.4556 6.21035 17.2585 6.40949 17.0056 6.40949V6.80949C17.4707 6.80949 17.8556 6.43983 17.8556 5.97426H17.4556Z" fill="#C3C6D0"/>
</svg>
