<svg width="388" height="184" viewBox="0 0 388 184" fill="none" xmlns="http://www.w3.org/2000/svg">
<path d="M1 0H387V184H1V0Z" fill="#677CD2"/>
<path d="M1 124L67.2586 85.4051C78.7054 78.7374 92.6685 78.0113 104.745 83.4556L143.872 101.094C160.529 108.604 180.145 104.184 191.973 90.2575L214.106 64.1959C225.416 50.8795 243.921 46.1925 260.206 52.5198L288.654 63.5731C305.724 70.2057 325.123 64.7132 336.182 50.1162L339.191 46.1447C350.338 31.433 370.174 26.3809 387 33.9685V33.9685" stroke="#6D81D3"/>
<path d="M1 144L67.2586 105.405C78.7054 98.7374 92.6685 98.0113 104.745 103.456L143.872 121.094C160.529 128.604 180.145 124.184 191.973 110.257L214.106 84.1959C225.416 70.8795 243.921 66.1925 260.206 72.5198L288.654 83.5731C305.724 90.2057 325.123 84.7132 336.182 70.1162L339.191 66.1447C350.338 51.433 370.174 46.3809 387 53.9685V53.9685" stroke="#6D81D3"/>
</svg>
