<svg width="32" height="32" viewBox="0 0 32 32" fill="none" xmlns="http://www.w3.org/2000/svg">
<path fill-rule="evenodd" clip-rule="evenodd" d="M6.7839 30.0364L5.00424 28.2377L1 24.1906L1.88983 23.2912L2.84322 24.2548L6.27542 20.8501L5.32203 19.8865L3.41525 18.0236L4.30508 17.1242L6.21186 18.9872L17.3983 7.80942C18.161 7.10278 19.3686 7.10278 20.0678 7.80942L22.1653 5.68951L24.9619 6.13919L30.1102 1L31 1.89936L25.9153 7.03854L26.2966 9.80086L24.1992 11.8565C24.5805 12.242 24.7712 12.6916 24.7712 13.2056C24.7712 13.7195 24.5805 14.1692 24.1992 14.5546L12.9492 25.7966L14.8559 27.6595L13.9661 28.5589L12.0593 26.6959L11.1059 25.7323L7.67373 29.137L8.62712 30.1006L7.73729 31L6.7839 30.0364ZM24.7076 7.35974L22.6737 7.03854L21.0212 8.70878L22.4195 10.1221L23.3729 10.9572L25.0254 9.35118L24.7076 7.35974ZM18.3517 8.64454C18.6059 8.38758 18.9873 8.38758 19.178 8.64454L23.3093 12.7559C23.4364 12.8844 23.5 13.0128 23.5 13.1413C23.5 13.2698 23.4364 13.4625 23.3093 13.5268L22.2288 14.7473L19.75 12.242L18.8602 13.1413L21.339 15.6467L19.9407 17.06L17.4619 14.5546L16.572 15.454L19.0508 17.9593L17.6525 19.3726L15.1737 16.8672L14.2839 17.7666L16.7627 20.2719L15.3644 21.6852L12.8856 19.1799L11.9958 20.0792L14.4746 22.5846L12.1229 24.8972L7.1017 19.8865L18.3517 8.64454ZM8.69068 23.2912L7.16525 21.7495L3.73305 25.2184L6.7839 28.2377L10.2161 24.833L8.69068 23.2912Z" fill="#C3C6D0"/>
<path d="M5.00424 28.2377L4.79098 28.4487V28.4487L5.00424 28.2377ZM6.7839 30.0364L6.99716 29.8254L6.99716 29.8254L6.7839 30.0364ZM1 24.1906L0.786741 23.9796L0.577977 24.1906L0.786741 24.4016L1 24.1906ZM1.88983 23.2912L2.10309 23.0802L1.88983 22.8647L1.67657 23.0802L1.88983 23.2912ZM2.84322 24.2548L2.62996 24.4658L2.84124 24.6794L3.0545 24.4678L2.84322 24.2548ZM6.27542 20.8501L6.4867 21.0631L6.69941 20.8521L6.48868 20.6391L6.27542 20.8501ZM5.32203 19.8865L5.53532 19.6755L5.53169 19.6719L5.32203 19.8865ZM3.41525 18.0236L3.202 17.8126L2.98966 18.0272L3.2056 18.2381L3.41525 18.0236ZM4.30508 17.1242L4.51474 16.9096L4.3015 16.7013L4.09183 16.9132L4.30508 17.1242ZM6.21186 18.9872L6.00221 19.2017L6.21423 19.4089L6.42391 19.1994L6.21186 18.9872ZM17.3983 7.80942L17.1943 7.5892L17.1863 7.59721L17.3983 7.80942ZM20.0678 7.80942L19.8545 8.02042L20.0678 8.23596L20.2811 8.02042L20.0678 7.80942ZM22.1653 5.68951L22.2129 5.39331L22.0605 5.36881L21.952 5.47851L22.1653 5.68951ZM24.9619 6.13919L24.9142 6.43538L25.0654 6.45969L25.1738 6.35151L24.9619 6.13919ZM30.1102 1L30.3234 0.789001L30.1115 0.574793L29.8982 0.78768L30.1102 1ZM31 1.89936L31.2133 2.11036L31.422 1.89936L31.2133 1.68836L31 1.89936ZM25.9153 7.03854L25.702 6.82754L25.5978 6.93284L25.6181 7.07957L25.9153 7.03854ZM26.2966 9.80086L26.5066 10.0151L26.6144 9.90942L26.5938 9.75983L26.2966 9.80086ZM24.1992 11.8565L23.9892 11.6423L23.7739 11.8533L23.9859 12.0675L24.1992 11.8565ZM24.1992 14.5546L24.4112 14.7668L24.4124 14.7656L24.1992 14.5546ZM12.9492 25.7966L12.7371 25.5844L12.5223 25.799L12.7395 26.0112L12.9492 25.7966ZM14.8559 27.6595L15.0692 27.8705L15.2815 27.6559L15.0656 27.4449L14.8559 27.6595ZM13.9661 28.5589L13.7564 28.7735L13.9697 28.9818L14.1794 28.7699L13.9661 28.5589ZM12.0593 26.6959L11.846 26.907L11.8497 26.9105L12.0593 26.6959ZM11.1059 25.7323L11.3192 25.5213L11.1079 25.3078L10.8947 25.5194L11.1059 25.7323ZM7.67373 29.137L7.46245 28.9241L7.24975 29.1351L7.46047 29.348L7.67373 29.137ZM8.62712 30.1006L8.84038 30.3116L9.04914 30.1006L8.84038 29.8896L8.62712 30.1006ZM7.73729 31L7.52403 31.211L7.73729 31.4265L7.95055 31.211L7.73729 31ZM22.6737 7.03854L22.7205 6.74222L22.5686 6.71823L22.4605 6.82754L22.6737 7.03854ZM24.7076 7.35974L25.0039 7.31247L24.9696 7.09739L24.7544 7.06342L24.7076 7.35974ZM21.0212 8.70878L20.8079 8.49778L20.5992 8.70878L20.8079 8.91978L21.0212 8.70878ZM22.4195 10.1221L22.2062 10.3331L22.2138 10.3407L22.2218 10.3477L22.4195 10.1221ZM23.3729 10.9572L23.1752 11.1828L23.3834 11.3652L23.582 11.1723L23.3729 10.9572ZM25.0254 9.35118L25.2345 9.56632L25.3462 9.45774L25.3217 9.3039L25.0254 9.35118ZM19.178 8.64454L18.9371 8.82331L18.9504 8.84135L18.9664 8.85719L19.178 8.64454ZM18.3517 8.64454L18.5638 8.85675L18.565 8.85554L18.3517 8.64454ZM23.3093 12.7559L23.5226 12.5449L23.5209 12.5432L23.3093 12.7559ZM23.3093 13.5268L23.174 13.259L23.1228 13.2849L23.0847 13.3279L23.3093 13.5268ZM22.2288 14.7473L22.0156 14.9583L22.241 15.1862L22.4534 14.9462L22.2288 14.7473ZM19.75 12.242L19.9633 12.031L19.75 11.8154L19.5367 12.031L19.75 12.242ZM18.8602 13.1413L18.6469 12.9303L18.4381 13.1413L18.6469 13.3523L18.8602 13.1413ZM21.339 15.6467L21.5522 15.8577L21.761 15.6467L21.5522 15.4357L21.339 15.6467ZM19.9407 17.06L19.7274 17.271L19.9407 17.4865L20.1539 17.271L19.9407 17.06ZM17.4619 14.5546L17.6751 14.3436L17.4619 14.1281L17.2486 14.3436L17.4619 14.5546ZM16.572 15.454L16.3588 15.243L16.15 15.454L16.3588 15.665L16.572 15.454ZM19.0508 17.9593L19.2641 18.1703L19.4729 17.9593L19.2641 17.7483L19.0508 17.9593ZM17.6525 19.3726L17.4393 19.5836L17.6525 19.7991L17.8658 19.5836L17.6525 19.3726ZM15.1737 16.8672L15.387 16.6562L15.1737 16.4407L14.9605 16.6562L15.1737 16.8672ZM14.2839 17.7666L14.0706 17.5556L13.8619 17.7666L14.0706 17.9776L14.2839 17.7666ZM16.7627 20.2719L16.976 20.4829L17.1847 20.2719L16.976 20.0609L16.7627 20.2719ZM15.3644 21.6852L15.1511 21.8962L15.3644 22.1118L15.5777 21.8962L15.3644 21.6852ZM12.8856 19.1799L13.0989 18.9689L12.8856 18.7533L12.6723 18.9689L12.8856 19.1799ZM11.9958 20.0792L11.7825 19.8682L11.5737 20.0792L11.7825 20.2902L11.9958 20.0792ZM14.4746 22.5846L14.6849 22.7985L14.8995 22.5875L14.6878 22.3736L14.4746 22.5846ZM12.1229 24.8972L11.911 25.1096L12.1213 25.3195L12.3332 25.1111L12.1229 24.8972ZM7.1017 19.8865L6.88964 19.6743L6.67713 19.8867L6.88978 20.0989L7.1017 19.8865ZM7.16525 21.7495L7.37851 21.5385L7.16525 21.3229L6.952 21.5385L7.16525 21.7495ZM8.69068 23.2912L8.90394 23.0802V23.0802L8.69068 23.2912ZM3.73305 25.2184L3.51979 25.0074L3.30882 25.2206L3.52203 25.4316L3.73305 25.2184ZM6.7839 28.2377L6.57287 28.4509L6.78415 28.66L6.99518 28.4507L6.7839 28.2377ZM10.2161 24.833L10.4274 25.046L10.6401 24.835L10.4294 24.622L10.2161 24.833ZM4.79098 28.4487L6.57064 30.2474L6.99716 29.8254L5.2175 28.0267L4.79098 28.4487ZM0.786741 24.4016L4.79098 28.4487L5.2175 28.0267L1.21326 23.9796L0.786741 24.4016ZM1.67657 23.0802L0.786741 23.9796L1.21326 24.4016L2.10309 23.5022L1.67657 23.0802ZM3.05648 24.0438L2.10309 23.0802L1.67657 23.5022L2.62996 24.4658L3.05648 24.0438ZM6.06415 20.6371L2.63194 24.0418L3.0545 24.4678L6.4867 21.0631L6.06415 20.6371ZM5.10878 20.0975L6.06216 21.0611L6.48868 20.6391L5.53529 19.6755L5.10878 20.0975ZM3.2056 18.2381L5.11238 20.1011L5.53169 19.6719L3.62491 17.809L3.2056 18.2381ZM4.09183 16.9132L3.202 17.8126L3.62851 18.2346L4.51834 17.3352L4.09183 16.9132ZM6.42152 18.7726L4.51474 16.9096L4.09543 17.3388L6.00221 19.2017L6.42152 18.7726ZM17.1863 7.59721L5.99981 18.7749L6.42391 19.1994L17.6104 8.02164L17.1863 7.59721ZM20.2811 7.59842C19.4597 6.76823 18.0669 6.78103 17.1944 7.58935L17.6022 8.02949C18.2552 7.42454 19.2776 7.43734 19.8545 8.02042L20.2811 7.59842ZM21.952 5.47851L19.8545 7.59842L20.2811 8.02042L22.3785 5.90051L21.952 5.47851ZM25.0095 5.84299L22.2129 5.39331L22.1176 5.9857L24.9142 6.43538L25.0095 5.84299ZM29.8982 0.78768L24.7499 5.92687L25.1738 6.35151L30.3221 1.21232L29.8982 0.78768ZM31.2133 1.68836L30.3234 0.789001L29.8969 1.211L30.7867 2.11036L31.2133 1.68836ZM26.1285 7.24954L31.2133 2.11036L30.7867 1.68836L25.702 6.82754L26.1285 7.24954ZM26.5938 9.75983L26.2124 6.99752L25.6181 7.07957L25.9994 9.84188L26.5938 9.75983ZM24.4091 12.0708L26.5066 10.0151L26.0866 9.5866L23.9892 11.6423L24.4091 12.0708ZM25.0712 13.2056C25.0712 12.6079 24.8459 12.0837 24.4124 11.6455L23.9859 12.0675C24.3151 12.4002 24.4712 12.7754 24.4712 13.2056H25.0712ZM24.4124 14.7656C24.8459 14.3274 25.0712 13.8032 25.0712 13.2056H24.4712C24.4712 13.6358 24.3151 14.0109 23.9859 14.3436L24.4124 14.7656ZM13.1612 26.0088L24.4112 14.7668L23.9871 14.3424L12.7371 25.5844L13.1612 26.0088ZM15.0656 27.4449L13.1588 25.582L12.7395 26.0112L14.6463 27.8741L15.0656 27.4449ZM14.1794 28.7699L15.0692 27.8705L14.6427 27.4485L13.7528 28.3479L14.1794 28.7699ZM11.8497 26.9105L13.7564 28.7735L14.1758 28.3443L12.269 26.4813L11.8497 26.9105ZM10.8927 25.9433L11.8461 26.9069L12.2726 26.4849L11.3192 25.5213L10.8927 25.9433ZM7.88501 29.35L11.3172 25.9453L10.8947 25.5194L7.46245 28.9241L7.88501 29.35ZM8.84038 29.8896L7.88699 28.926L7.46047 29.348L8.41386 30.3116L8.84038 29.8896ZM7.95055 31.211L8.84038 30.3116L8.41386 29.8896L7.52403 30.789L7.95055 31.211ZM6.57064 30.2474L7.52403 31.211L7.95055 30.789L6.99716 29.8254L6.57064 30.2474ZM22.6269 7.33487L24.6608 7.65607L24.7544 7.06342L22.7205 6.74222L22.6269 7.33487ZM21.2344 8.91978L22.887 7.24954L22.4605 6.82754L20.8079 8.49778L21.2344 8.91978ZM22.6328 9.91106L21.2344 8.49778L20.8079 8.91978L22.2062 10.3331L22.6328 9.91106ZM23.5706 10.7315L22.6172 9.89639L22.2218 10.3477L23.1752 11.1828L23.5706 10.7315ZM24.8163 9.13604L23.1638 10.742L23.582 11.1723L25.2345 9.56632L24.8163 9.13604ZM24.4114 7.40702L24.7292 9.39845L25.3217 9.3039L25.0039 7.31247L24.4114 7.40702ZM19.4189 8.46577C19.0935 8.02734 18.4905 8.07775 18.1384 8.43354L18.565 8.85554C18.7214 8.69741 18.881 8.74782 18.9371 8.82331L19.4189 8.46577ZM23.5209 12.5432L19.3896 8.43189L18.9664 8.85719L23.0977 12.9685L23.5209 12.5432ZM23.8 13.1413C23.8 12.9064 23.6824 12.7064 23.5226 12.5449L23.0961 12.9669C23.1905 13.0623 23.2 13.1193 23.2 13.1413H23.8ZM23.4446 13.7945C23.5949 13.7186 23.6808 13.5838 23.727 13.4789C23.7749 13.3699 23.8 13.2486 23.8 13.1413H23.2C23.2 13.1498 23.1988 13.1648 23.1947 13.184C23.1907 13.2028 23.1848 13.2213 23.1777 13.2374C23.1705 13.2538 23.164 13.2634 23.1606 13.2674C23.1573 13.2715 23.1609 13.2657 23.174 13.259L23.4446 13.7945ZM22.4534 14.9462L23.5339 13.7256L23.0847 13.3279L22.0042 14.5485L22.4534 14.9462ZM19.5367 12.453L22.0156 14.9583L22.4421 14.5363L19.9633 12.031L19.5367 12.453ZM19.0734 13.3523L19.9633 12.453L19.5367 12.031L18.6469 12.9303L19.0734 13.3523ZM21.5522 15.4357L19.0734 12.9303L18.6469 13.3523L21.1257 15.8577L21.5522 15.4357ZM20.1539 17.271L21.5522 15.8577L21.1257 15.4357L19.7274 16.849L20.1539 17.271ZM17.2486 14.7656L19.7274 17.271L20.1539 16.849L17.6751 14.3436L17.2486 14.7656ZM16.7853 15.665L17.6751 14.7656L17.2486 14.3436L16.3588 15.243L16.7853 15.665ZM19.2641 17.7483L16.7853 15.243L16.3588 15.665L18.8376 18.1703L19.2641 17.7483ZM17.8658 19.5836L19.2641 18.1703L18.8376 17.7483L17.4393 19.1616L17.8658 19.5836ZM14.9605 17.0782L17.4393 19.5836L17.8658 19.1616L15.387 16.6562L14.9605 17.0782ZM14.4972 17.9776L15.387 17.0782L14.9605 16.6562L14.0706 17.5556L14.4972 17.9776ZM16.976 20.0609L14.4972 17.5556L14.0706 17.9776L16.5495 20.4829L16.976 20.0609ZM15.5777 21.8962L16.976 20.4829L16.5495 20.0609L15.1511 21.4742L15.5777 21.8962ZM12.6723 19.3909L15.1511 21.8962L15.5777 21.4742L13.0989 18.9689L12.6723 19.3909ZM12.209 20.2902L13.0989 19.3909L12.6723 18.9689L11.7825 19.8682L12.209 20.2902ZM14.6878 22.3736L12.209 19.8682L11.7825 20.2902L14.2613 22.7956L14.6878 22.3736ZM12.3332 25.1111L14.6849 22.7985L14.2642 22.3707L11.9125 24.6833L12.3332 25.1111ZM6.88978 20.0989L11.911 25.1096L12.3348 24.6849L7.31361 19.6742L6.88978 20.0989ZM18.1396 8.43233L6.88964 19.6743L7.31375 20.0987L18.5638 8.85675L18.1396 8.43233ZM6.952 21.9605L8.47742 23.5022L8.90394 23.0802L7.37851 21.5385L6.952 21.9605ZM3.94631 25.4294L7.37851 21.9605L6.952 21.5385L3.51979 25.0074L3.94631 25.4294ZM6.99492 28.0245L3.94408 25.0052L3.52203 25.4316L6.57287 28.4509L6.99492 28.0245ZM10.0048 24.62L6.57262 28.0247L6.99518 28.4507L10.4274 25.046L10.0048 24.62ZM8.47742 23.5022L10.0028 25.044L10.4294 24.622L8.90394 23.0802L8.47742 23.5022Z" fill="#C3C6D0"/>
</svg>
