<svg width="20" height="21" viewBox="0 0 20 21" fill="none" xmlns="http://www.w3.org/2000/svg">
<path d="M7.00978 19.2733V16.2156C7.00978 15.4351 7.64717 14.8023 8.43344 14.8023H11.3076C11.6852 14.8023 12.0473 14.9512 12.3143 15.2163C12.5813 15.4813 12.7313 15.8408 12.7313 16.2156V19.2733C12.7289 19.5978 12.8571 19.9099 13.0874 20.1402C13.3177 20.3705 13.631 20.5 13.9579 20.5H15.9188C16.8346 20.5024 17.7138 20.1428 18.3622 19.5008C19.0106 18.8588 19.375 17.987 19.375 17.0778V8.36686C19.375 7.63246 19.0471 6.93584 18.4796 6.46467L11.809 1.17587C10.6487 0.248562 8.98611 0.278502 7.86039 1.24698L1.34201 6.46467C0.747741 6.92195 0.392552 7.62064 0.375 8.36686V17.0689C0.375 18.9639 1.92238 20.5 3.83117 20.5H5.74729C6.42623 20.5 6.978 19.9562 6.98292 19.2822L7.00978 19.2733Z" fill="#FB1414"/>
</svg>
