<svg width="34" height="26" viewBox="0 0 34 26" fill="none" xmlns="http://www.w3.org/2000/svg">
<path fill-rule="evenodd" clip-rule="evenodd" d="M31.8146 10.1231C32.2654 10.2461 32.6438 10.4608 32.9445 10.7669C33.8189 11.657 33.8085 13.0271 33.7976 14.4777L33.7976 14.4788C33.7936 14.9854 33.7948 20.8878 33.7949 20.9999C33.7949 21.5523 33.3516 22 32.8048 22H31.8148V25C31.8148 25.5523 31.3716 26 30.8248 26C30.278 26 29.8347 25.5522 29.8347 25V22H3.96272V25C3.96272 25.5523 3.51949 26 2.97269 26C2.42588 26 1.98266 25.5522 1.98266 25V22H0.992628C0.445823 22 0.00259722 21.5522 0.00259722 20.9999C0.00259722 20.9999 0.0076804 15.134 0.00259722 14.4788L0.00249836 14.466C-0.00869523 13.0197 -0.0192611 11.6546 0.852741 10.7669C1.15337 10.4607 1.53184 10.2461 1.98259 10.1231V5.00001C1.98259 2.24298 4.20315 0 6.93261 0H26.8646C29.5941 0 31.8146 2.24305 31.8146 5.00001V10.1231ZM6.93261 1.99999C5.29491 1.99999 3.96259 3.34583 3.96259 5.00001V10H5.94258V7C5.94258 5.34575 7.27497 3.99998 8.91261 3.99998H14.9186C15.6787 3.99998 16.3727 4.29018 16.8986 4.76629C17.4245 4.29025 18.1185 3.99998 18.8786 3.99998H24.8846C26.5223 3.99998 27.8546 5.34582 27.8546 7V10H29.8346V5.00001C29.8346 3.34576 28.5022 1.99999 26.8646 1.99999H6.93261ZM25.8746 7V10H17.8886V7C17.8886 6.4486 18.3327 5.99997 18.8787 5.99997H24.8847C25.4305 5.99997 25.8746 6.4486 25.8746 7ZM15.9086 10V7C15.9086 6.4486 15.4645 5.99997 14.9187 5.99997H8.91267C8.36673 5.99997 7.92264 6.4486 7.92264 7V10H15.9086ZM1.98259 20V18H31.8146V20H1.98259ZM31.8147 15.2123C31.8144 14.9496 31.8144 14.856 31.8174 14.4632V14.4629C31.8246 13.5308 31.8327 12.4745 31.5391 12.1755C31.3965 12.0305 31.0719 12 30.8246 12H2.97262C2.05092 12 1.96279 12.2571 1.97982 14.4632C1.98287 14.853 1.98277 14.9673 1.98254 15.2495C1.98241 15.4137 1.98223 15.6348 1.98259 16H31.8146C31.815 15.6002 31.8148 15.3741 31.8147 15.2123Z" fill="#1E2022"/>
</svg>
