<svg width="26" height="32" viewBox="0 0 26 32" fill="none" xmlns="http://www.w3.org/2000/svg">
<path d="M14.2723 14.4563H10.013C9.6927 14.4563 9.43303 14.198 9.43303 13.8794C9.43303 13.5607 9.6927 13.3024 10.013 13.3024H14.2723C14.8988 13.3024 15.4068 12.7972 15.4068 12.1739C15.4068 11.5507 14.8988 11.0455 14.2723 11.0455H11.7275C10.9068 11.0469 10.1478 10.6122 9.73703 9.90546C9.32626 9.19871 9.32626 8.32753 9.73703 7.62077C10.1478 6.91402 10.9068 6.47933 11.7275 6.48078H15.987C16.3074 6.48078 16.567 6.73907 16.567 7.0577C16.567 7.37633 16.3074 7.63462 15.987 7.63462H11.7275C11.3215 7.6336 10.9459 7.84847 10.7426 8.19805C10.5393 8.54762 10.5393 8.97861 10.7426 9.32819C10.9459 9.67777 11.3215 9.89263 11.7275 9.89161H14.2723C15.5395 9.89161 16.5667 10.9134 16.5667 12.1739C16.5667 13.4344 15.5395 14.4563 14.2723 14.4563Z" fill="#C3C6D0" stroke="#C3C6D0" stroke-width="0.6"/>
<path d="M12.9999 15.9448C12.8461 15.9448 12.6985 15.884 12.5898 15.7758C12.481 15.6676 12.4199 15.5209 12.4199 15.3678V5.56917C12.4199 5.25055 12.6796 4.99225 12.9999 4.99225C13.3202 4.99225 13.5799 5.25055 13.5799 5.56917V15.3678C13.5799 15.5209 13.5188 15.6676 13.4101 15.7758C13.3013 15.884 13.1537 15.9448 12.9999 15.9448Z" fill="#C3C6D0" stroke="#C3C6D0" stroke-width="0.6"/>
<path fill-rule="evenodd" clip-rule="evenodd" d="M24.0099 30.831C24.1187 30.9392 24.2662 31 24.42 31C24.7403 31 25 30.7417 25 30.4231V1.57692C25 1.4239 24.9389 1.27714 24.8302 1.16893C24.7214 1.06073 24.5738 0.99996 24.42 1H1.57999C1.42615 0.99996 1.27861 1.06073 1.16983 1.16893C1.06105 1.27714 0.99996 1.4239 1 1.57692V30.4231C0.999986 30.6564 1.14129 30.8668 1.35802 30.9561C1.57474 31.0454 1.8242 30.996 1.99006 30.831L3.86396 28.9672L5.73785 30.831C5.84659 30.9392 5.9941 31 6.14792 31C6.30174 31 6.44925 30.9392 6.55799 30.831L8.43189 28.9672L10.3058 30.831C10.4145 30.9392 10.562 31 10.7159 31C10.8697 31 11.0172 30.9392 11.1259 30.831L13.0001 28.9672L14.8741 30.831C14.9828 30.9392 15.1303 31 15.2841 31C15.4379 31 15.5855 30.9392 15.6942 30.831L17.5681 28.9672L19.442 30.831C19.5507 30.9392 19.6983 31 19.8521 31C20.0059 31 20.1534 30.9392 20.2621 30.831L22.136 28.9672L24.0099 30.831ZM8.84198 27.7435L10.7159 29.6073L8.84198 27.7435ZM10.7159 29.6073L12.5901 27.7435L10.7159 29.6073ZM12.5901 27.7435C12.6988 27.6353 12.8463 27.5745 13.0001 27.5745L12.5901 27.7435ZM13.0001 27.5745C13.154 27.5745 13.3015 27.6353 13.4102 27.7435L13.0001 27.5745ZM13.4102 27.7435L15.2841 29.6073L13.4102 27.7435ZM15.2841 29.6073L17.158 27.7435L15.2841 29.6073ZM17.158 27.7435C17.2668 27.6353 17.4143 27.5745 17.5681 27.5745L17.158 27.7435ZM17.5681 27.5745C17.7219 27.5745 17.8694 27.6353 17.9782 27.7435L17.5681 27.5745ZM17.9782 27.7435L19.8521 29.6073L17.9782 27.7435ZM19.8521 29.6073L21.726 27.7435L19.8521 29.6073ZM21.726 27.7435C21.8347 27.6353 21.9822 27.5745 22.136 27.5745L21.726 27.7435ZM22.136 27.5745C22.2899 27.5745 22.4374 27.6353 22.5461 27.7435L22.136 27.5745ZM22.5461 27.7435L23.84 29.0303L22.5461 27.7435ZM23.84 29.0303V2.15384V29.0303ZM23.84 2.15384H2.15997H23.84ZM2.15997 2.15384V29.0303V2.15384ZM2.15997 29.0303L3.4539 27.7435L2.15997 29.0303ZM3.4539 27.7435C3.56263 27.6353 3.71015 27.5745 3.86396 27.5745L3.4539 27.7435ZM3.86396 27.5745C4.01778 27.5745 4.16529 27.6353 4.27403 27.7435L3.86396 27.5745ZM4.27403 27.7435L6.14793 29.6073L4.27403 27.7435ZM6.14793 29.6073L8.02184 27.7435L6.14793 29.6073ZM8.02184 27.7435C8.13047 27.6352 8.27805 27.5743 8.43191 27.5745L8.02184 27.7435Z" fill="#C3C6D0"/>
<path d="M24.42 31L24.42 31.3H24.42L24.42 31ZM24.0099 30.831L24.2216 30.6183L24.2215 30.6183L24.0099 30.831ZM25 1.57692L24.7 1.57684V1.57692H25ZM24.8302 1.16893L24.6186 1.38163V1.38163L24.8302 1.16893ZM24.42 1V1.3H24.4201L24.42 1ZM1.57999 1L1.57991 1.3H1.57999V1ZM1.16983 1.16893L1.3814 1.38163L1.16983 1.16893ZM1 1.57692H1.3V1.57684L1 1.57692ZM1 30.4231L1.3 30.4231V30.4231H1ZM1.35802 30.9561L1.24374 31.2335L1.35802 30.9561ZM1.99006 30.831L1.7785 30.6183L1.77846 30.6183L1.99006 30.831ZM3.86396 28.9672L4.07551 28.7545L3.86396 28.5441L3.65241 28.7545L3.86396 28.9672ZM5.73785 30.831L5.94948 30.6183L5.94941 30.6183L5.73785 30.831ZM6.55799 30.831L6.34644 30.6183L6.34636 30.6183L6.55799 30.831ZM8.43189 28.9672L8.64345 28.7545L8.43189 28.5441L8.22034 28.7545L8.43189 28.9672ZM10.3058 30.831L10.5174 30.6183L10.5173 30.6183L10.3058 30.831ZM11.1259 30.831L10.9144 30.6182L10.9143 30.6183L11.1259 30.831ZM13.0001 28.9672L13.2117 28.7545L13.0002 28.5442L12.7886 28.7545L13.0001 28.9672ZM14.8741 30.831L15.0857 30.6183L15.0856 30.6183L14.8741 30.831ZM15.6942 30.831L15.4826 30.6183L15.4826 30.6183L15.6942 30.831ZM17.5681 28.9672L17.7797 28.7545L17.5681 28.5441L17.3566 28.7545L17.5681 28.9672ZM19.442 30.831L19.6536 30.6183L19.6536 30.6183L19.442 30.831ZM20.2621 30.831L20.0506 30.6183L20.0505 30.6183L20.2621 30.831ZM22.136 28.9672L22.3476 28.7545L22.136 28.5441L21.9245 28.7545L22.136 28.9672ZM10.7159 29.6073L10.5043 29.82L10.7159 30.0304L10.9274 29.82L10.7159 29.6073ZM15.2841 29.6073L15.0726 29.82L15.2841 30.0304L15.4957 29.82L15.2841 29.6073ZM19.8521 29.6073L19.6405 29.82L19.8521 30.0304L20.0636 29.82L19.8521 29.6073ZM23.84 29.0303L23.6285 29.2431L24.14 29.7518V29.0303H23.84ZM23.84 2.15384H24.14V1.85384H23.84V2.15384ZM2.15997 2.15384V1.85384H1.85997V2.15384H2.15997ZM2.15997 29.0303H1.85997V29.7518L2.37152 29.2431L2.15997 29.0303ZM6.14793 29.6073L5.93638 29.82L6.14793 30.0304L6.35949 29.82L6.14793 29.6073ZM8.43191 27.5745L8.54623 27.8519L8.43226 27.2745L8.43191 27.5745ZM24.42 30.7C24.3453 30.7 24.2739 30.6704 24.2216 30.6183L23.7983 31.0436C23.9635 31.2079 24.1871 31.3 24.42 31.3L24.42 30.7ZM24.7 30.4231C24.7 30.5745 24.5761 30.7 24.42 30.7L24.42 31.3C24.9045 31.3 25.3 30.9089 25.3 30.4231H24.7ZM24.7 1.57692V30.4231H25.3V1.57692H24.7ZM24.6186 1.38163C24.6709 1.43367 24.7 1.50393 24.7 1.57684L25.3 1.577C25.3001 1.34388 25.207 1.1206 25.0417 0.956239L24.6186 1.38163ZM24.4201 1.3C24.4948 1.29998 24.5662 1.32953 24.6186 1.38163L25.0417 0.956239C24.8766 0.791934 24.6529 0.699939 24.4199 0.7L24.4201 1.3ZM1.57999 1.3H24.42V0.7H1.57999V1.3ZM1.3814 1.38163C1.43378 1.32953 1.50515 1.29998 1.57991 1.3L1.58006 0.7C1.34715 0.699939 1.12344 0.791934 0.958259 0.95624L1.3814 1.38163ZM1.3 1.57684C1.29998 1.50393 1.32908 1.43367 1.3814 1.38163L0.958259 0.95624C0.793028 1.1206 0.699938 1.34387 0.7 1.577L1.3 1.57684ZM1.3 30.4231V1.57692H0.7V30.4231H1.3ZM1.4723 30.6787C1.36728 30.6354 1.29999 30.5342 1.3 30.4231L0.7 30.4231C0.699979 30.7787 0.915299 31.0981 1.24374 31.2335L1.4723 30.6787ZM1.77846 30.6183C1.69849 30.6979 1.57756 30.7221 1.4723 30.6787L1.24374 31.2335C1.57193 31.3687 1.94991 31.2941 2.20165 31.0436L1.77846 30.6183ZM3.65241 28.7545L1.7785 30.6183L2.20161 31.0437L4.07551 29.18L3.65241 28.7545ZM5.94941 30.6183L4.07551 28.7545L3.6524 29.18L5.5263 31.0437L5.94941 30.6183ZM6.14792 30.7C6.07318 30.7 6.00183 30.6704 5.94948 30.6183L5.52623 31.0436C5.69135 31.208 5.91503 31.3 6.14792 31.3V30.7ZM6.34636 30.6183C6.29401 30.6704 6.22266 30.7 6.14792 30.7V31.3C6.38082 31.3 6.60449 31.208 6.76961 31.0436L6.34636 30.6183ZM8.22034 28.7545L6.34644 30.6183L6.76954 31.0437L8.64345 29.18L8.22034 28.7545ZM10.5173 30.6183L8.64345 28.7545L8.22034 29.18L10.0942 31.0437L10.5173 30.6183ZM10.7159 30.7C10.6411 30.7 10.5698 30.6704 10.5174 30.6183L10.0942 31.0436C10.2593 31.2079 10.483 31.3 10.7159 31.3V30.7ZM10.9143 30.6183C10.8619 30.6704 10.7906 30.7 10.7159 30.7V31.3C10.9488 31.3 11.1724 31.2079 11.3375 31.0436L10.9143 30.6183ZM12.7886 28.7545L10.9144 30.6182L11.3375 31.0437L13.2117 29.18L12.7886 28.7545ZM15.0856 30.6183L13.2117 28.7545L12.7886 29.18L14.6625 31.0437L15.0856 30.6183ZM15.2841 30.7C15.2094 30.7 15.138 30.6704 15.0857 30.6183L14.6624 31.0436C14.8276 31.208 15.0512 31.3 15.2841 31.3V30.7ZM15.4826 30.6183C15.4302 30.6704 15.3589 30.7 15.2841 30.7V31.3C15.517 31.3 15.7407 31.208 15.9058 31.0436L15.4826 30.6183ZM17.3566 28.7545L15.4826 30.6183L15.9058 31.0437L17.7797 29.18L17.3566 28.7545ZM19.6536 30.6183L17.7797 28.7545L17.3566 29.18L19.2304 31.0437L19.6536 30.6183ZM19.8521 30.7C19.7773 30.7 19.706 30.6704 19.6536 30.6183L19.2304 31.0436C19.3955 31.2079 19.6192 31.3 19.8521 31.3V30.7ZM20.0505 30.6183C19.9982 30.6704 19.9268 30.7 19.8521 30.7V31.3C20.085 31.3 20.3086 31.2079 20.4738 31.0436L20.0505 30.6183ZM21.9245 28.7545L20.0506 30.6183L20.4737 31.0437L22.3476 29.18L21.9245 28.7545ZM24.2215 30.6183L22.3476 28.7545L21.9245 29.18L23.7984 31.0437L24.2215 30.6183ZM8.63042 27.9562L10.5043 29.82L10.9274 29.3946L9.05353 27.5308L8.63042 27.9562ZM8.63042 27.9562L10.5043 29.82L10.9274 29.3946L9.05353 27.5308L8.63042 27.9562ZM10.9274 29.82L12.8016 27.9563L12.3785 27.5308L10.5043 29.3945L10.9274 29.82ZM10.9274 29.82L12.8016 27.9563L12.3785 27.5308L10.5043 29.3945L10.9274 29.82ZM12.8017 27.9562C12.854 27.9041 12.9254 27.8745 13.0001 27.8745V27.2745C12.7672 27.2745 12.5436 27.3666 12.3784 27.5309L12.8017 27.9562ZM12.7044 28.0209L13.1145 27.8519L12.8858 27.2971L12.4758 27.4662L12.7044 28.0209ZM13.0001 27.8745C13.0749 27.8745 13.1462 27.9041 13.1986 27.9562L13.6218 27.5309C13.4567 27.3666 13.233 27.2745 13.0001 27.2745V27.8745ZM12.8858 27.8519L13.2959 28.0209L13.5245 27.4662L13.1145 27.2971L12.8858 27.8519ZM13.1987 27.9562L15.0726 29.82L15.4957 29.3946L13.6218 27.5308L13.1987 27.9562ZM13.1987 27.9562L15.0726 29.82L15.4957 29.3946L13.6218 27.5308L13.1987 27.9562ZM15.4957 29.82L17.3696 27.9562L16.9465 27.5308L15.0726 29.3946L15.4957 29.82ZM15.4957 29.82L17.3696 27.9562L16.9465 27.5308L15.0726 29.3946L15.4957 29.82ZM17.3696 27.9562C17.422 27.9041 17.4934 27.8745 17.5681 27.8745V27.2745C17.3352 27.2745 17.1115 27.3666 16.9464 27.5309L17.3696 27.9562ZM17.2723 28.0209L17.6824 27.8519L17.4538 27.2971L17.0437 27.4662L17.2723 28.0209ZM17.5681 27.8745C17.6428 27.8745 17.7142 27.9041 17.7665 27.9562L18.1898 27.5309C18.0247 27.3666 17.801 27.2745 17.5681 27.2745V27.8745ZM17.4538 27.8519L17.8638 28.0209L18.0925 27.4662L17.6824 27.2971L17.4538 27.8519ZM17.7666 27.9562L19.6405 29.82L20.0636 29.3946L18.1897 27.5308L17.7666 27.9562ZM17.7666 27.9562L19.6405 29.82L20.0636 29.3946L18.1897 27.5308L17.7666 27.9562ZM20.0636 29.82L21.9375 27.9562L21.5144 27.5308L19.6405 29.3946L20.0636 29.82ZM20.0636 29.82L21.9375 27.9562L21.5144 27.5308L19.6405 29.3946L20.0636 29.82ZM21.9376 27.9562C21.9899 27.9041 22.0613 27.8745 22.136 27.8745V27.2745C21.9031 27.2745 21.6795 27.3666 21.5143 27.5309L21.9376 27.9562ZM21.8403 28.0209L22.2504 27.8519L22.0217 27.2971L21.6116 27.4662L21.8403 28.0209ZM22.136 27.8745C22.2108 27.8745 22.2821 27.9041 22.3345 27.9562L22.7577 27.5309C22.5926 27.3666 22.3689 27.2745 22.136 27.2745V27.8745ZM22.0217 27.8519L22.4318 28.0209L22.6604 27.4662L22.2504 27.2971L22.0217 27.8519ZM22.3346 27.9562L23.6285 29.2431L24.0516 28.8176L22.7577 27.5308L22.3346 27.9562ZM22.3346 27.9562L23.6285 29.2431L24.0516 28.8176L22.7577 27.5308L22.3346 27.9562ZM24.14 29.0303V2.15384H23.54V29.0303H24.14ZM24.14 29.0303V2.15384H23.54V29.0303H24.14ZM23.84 1.85384H2.15997V2.45384H23.84V1.85384ZM23.84 1.85384H2.15997V2.45384H23.84V1.85384ZM1.85997 2.15384V29.0303H2.45997V2.15384H1.85997ZM1.85997 2.15384V29.0303H2.45997V2.15384H1.85997ZM2.37152 29.2431L3.66544 27.9562L3.24235 27.5308L1.94842 28.8176L2.37152 29.2431ZM2.37152 29.2431L3.66544 27.9562L3.24235 27.5308L1.94842 28.8176L2.37152 29.2431ZM3.66552 27.9562C3.71787 27.9041 3.78923 27.8745 3.86396 27.8745V27.2745C3.63107 27.2745 3.40739 27.3666 3.24227 27.5309L3.66552 27.9562ZM3.56822 28.0209L3.97828 27.8519L3.74964 27.2971L3.33957 27.4662L3.56822 28.0209ZM3.86396 27.8745C3.9387 27.8745 4.01006 27.9041 4.06241 27.9562L4.48566 27.5309C4.32053 27.3666 4.09686 27.2745 3.86396 27.2745V27.8745ZM3.74964 27.8519L4.15971 28.0209L4.38835 27.4662L3.97828 27.2971L3.74964 27.8519ZM4.06248 27.9562L5.93638 29.82L6.35949 29.3946L4.48558 27.5308L4.06248 27.9562ZM4.06248 27.9562L5.93638 29.82L6.35949 29.3946L4.48558 27.5308L4.06248 27.9562ZM6.35949 29.82L8.2334 27.9562L7.81029 27.5308L5.93638 29.3946L6.35949 29.82ZM6.35949 29.82L8.2334 27.9562L7.81029 27.5308L5.93638 29.3946L6.35949 29.82ZM8.23372 27.9559C8.28585 27.9039 8.35702 27.8744 8.43156 27.8745L8.43226 27.2745C8.19908 27.2742 7.97509 27.3664 7.80996 27.5311L8.23372 27.9559ZM8.13617 28.0209L8.54623 27.8519L8.31758 27.2971L7.90752 27.4662L8.13617 28.0209Z" fill="#C3C6D0"/>
<path d="M19.7801 20.399H6.21988C5.89956 20.399 5.63989 20.1407 5.63989 19.8221C5.63989 19.5035 5.89956 19.2452 6.21988 19.2452H19.7801C20.1005 19.2452 20.3601 19.5035 20.3601 19.8221C20.3601 20.1407 20.1005 20.399 19.7801 20.399Z" fill="#C3C6D0" stroke="#C3C6D0" stroke-width="0.6"/>
<path d="M19.7801 24.1733H6.21988C5.89956 24.1733 5.63989 23.915 5.63989 23.5963C5.63989 23.2777 5.89956 23.0194 6.21988 23.0194H19.7801C20.1005 23.0194 20.3601 23.2777 20.3601 23.5963C20.3601 23.915 20.1005 24.1733 19.7801 24.1733Z" fill="#C3C6D0" stroke="#C3C6D0" stroke-width="0.6"/>
</svg>
