<svg width="30" height="32" viewBox="0 0 30 32" fill="none" xmlns="http://www.w3.org/2000/svg">
<path d="M13 6C13.5523 6 14 5.55228 14 5C14 4.44772 13.5523 4 13 4H7C6.44772 4 6 4.44772 6 5C6 5.55228 6.44772 6 7 6H13Z" fill="#C3C6D0"/>
<path fill-rule="evenodd" clip-rule="evenodd" d="M20 8.84V4.84C20.0107 3.56178 19.511 2.3321 18.6119 1.42355C17.7127 0.514992 16.4883 0.00261865 15.21 0H4.79C2.14684 0.00550088 0.00550088 2.14684 0 4.79V27.21C0.00550088 29.8532 2.14684 31.9945 4.79 32H15.21C17.8532 31.9945 19.9945 29.8532 20 27.21V27.16C23.6379 25.5667 25.9882 21.9716 25.9882 18C25.9882 14.0284 23.6379 10.4333 20 8.84ZM15.21 30H4.79C3.24913 30 2 28.7509 2 27.21V4.79C2 3.24913 3.24913 2 4.79 2H15.21C16.7509 2 18 3.24913 18 4.79V8.2C17.3415 8.06765 16.6716 8.00066 16 8C13.3763 7.99973 10.8593 9.03887 9 10.89V10C9 9.44771 8.55229 9 8 9C7.44772 9 7 9.44771 7 10V26C7 26.5523 7.44772 27 8 27C8.55229 27 9 26.5523 9 26V25.11C10.8593 26.9611 13.3763 28.0003 16 28C16.6479 27.9982 17.2942 27.9345 17.93 27.81C17.6487 29.0873 16.5179 29.9978 15.21 30ZM9 21.86C10.4056 24.4115 13.0869 25.9974 16 26C19.9035 26.0035 23.2396 23.1894 23.894 19.3411C24.5483 15.4929 22.3299 11.7342 18.6446 10.4473C14.9594 9.16035 10.8834 10.721 9 14.14V21.86Z" fill="#C3C6D0"/>
<path d="M16 15H18C18.5523 15 19 14.5523 19 14C19 13.4477 18.5523 13 18 13H17C17 12.4477 16.5523 12 16 12C15.4477 12 15 12.4477 15 13V13.18C13.635 13.6753 12.8207 15.077 13.0666 16.5081C13.3125 17.9392 14.548 18.9887 16 19C16.5523 19 17 19.4477 17 20C17 20.5523 16.5523 21 16 21H14C13.4477 21 13 21.4477 13 22C13 22.5523 13.4477 23 14 23H15C15 23.5523 15.4477 24 16 24C16.5523 24 17 23.5523 17 23V22.82C18.365 22.3247 19.1793 20.923 18.9334 19.4919C18.6875 18.0608 17.452 17.0113 16 17C15.4477 17 15 16.5523 15 16C15 15.4477 15.4477 15 16 15Z" fill="#C3C6D0"/>
<path d="M28.9999 5H26.4099L26.7099 4.71C27.1021 4.31788 27.1021 3.68212 26.7099 3.29C26.3178 2.89788 25.6821 2.89788 25.2899 3.29L23.2899 5.29C23.1006 5.47777 22.9941 5.73336 22.9941 6C22.9941 6.26664 23.1006 6.52224 23.2899 6.71L25.2899 8.71C25.4777 8.89931 25.7333 9.0058 25.9999 9.0058C26.2666 9.0058 26.5222 8.89931 26.7099 8.71C26.8993 8.52224 27.0057 8.26664 27.0057 8C27.0057 7.73337 26.8993 7.47777 26.7099 7.29L26.4099 7H28.9999C29.5522 7 29.9999 6.55229 29.9999 6C29.9999 5.44772 29.5522 5 28.9999 5Z" fill="#C3C6D0"/>
</svg>
